# xmcd
#
# Track frame offsets:
#       150
#       19547
#       30895
#       48108
#       62870
#       80485
#       96666
#       117079
#       137808
#       155730
#       175574
#
# Disc length: 2894 seconds
#
# Revision: 3
# Processed by: cddbd v1.5PL3 Copyright (c) Steve Scherf et al.
# Submitted via: WaveLab 4.01
#
DISCID=840b4c0b
DTITLE=Chris Knight - The Jalous Kind
DYEAR=2003
DGENRE=Texas Country
TTITLE0=Chris Knight - The Jalous Kind (01)
TTITLE1=Chris Knight - Banging Away (02)
TTITLE2=Chris Knight - The Border (03)
TTITLE3=Chris Knight - Staying up all night long (04)
TTITLE4=Chris Knight - A Train Not Running (05)
TTITLE5=Chris Knight - Carla Came Home (06)
TTITLE6=Chris Knight - Me And This Road (07)
TTITLE7=Chris Knight - Broken Plow (08)
TTITLE8=Chris Knight - Devil Behind The Wheel (09)
TTITLE9=Chris Knight - Hello Old Man (10)
TTITLE10=Chris Knight - Long Black Highway (11)
EXTD=
EXTT0=
EXTT1=
EXTT2=
EXTT3=
EXTT4=
EXTT5=
EXTT6=
EXTT7=
EXTT8=
EXTT9=
EXTT10=
PLAYORDER=
